# xmcd
#
# Track frame offsets:
#	150
#	6580
#	20588
#	33490
#	48836
#	61126
#	67564
#	83093
#	87099
#	106372
#	121831
#	140552
#	160700
#	176553
#	189578
#	208553
#	213029
#	230268
#	256552
#	268155
#
# Disc length: 3704 seconds
#
# Revision: 0
# Processed by: cddbd v1.5.2PL0 Copyright (c) Steve Scherf et al.
# Submitted via: EasyCDDAExtractor 10.0.6.1
#
DISCID=fd0e7614
DTITLE=Church Bizarre - Sic Luceat Lux
DYEAR=2008
DGENRE=Death Metal
TTITLE0=Judging Eyes (Intro)
TTITLE1=Evoked or Nor - Evil Will Come
TTITLE2=Chapel of Suffering
TTITLE3=Son of the Mourning
TTITLE4=Return of the Gemini
TTITLE5=Burning Sentence (Outro)
TTITLE6=Consumed by the Southern Cross
TTITLE7=Jesus is Doomed
TTITLE8=Judging Eyes - Evoked or not - Evil Will Come
TTITLE9=Consumed by the Southern Cross
TTITLE10=Sinister Glorification
TTITLE11=Intro - The Horned Majesty
TTITLE12=Into the Dark (Where Witches Burned)
TTITLE13=Chapel of Suffering
TTITLE14=Enter the Temple of Shadows
TTITLE15=Intro
TTITLE16=The Horned Majesty
TTITLE17=Enigma of Hades
TTITLE18=Devil Metal
TTITLE19=Church Bizarre
EXTD=
EXTT0=
EXTT1=
EXTT2=
EXTT3=
EXTT4=
EXTT5=
EXTT6=
EXTT7=
EXTT8=
EXTT9=
EXTT10=
EXTT11=
EXTT12=
EXTT13=
EXTT14=
EXTT15=
EXTT16=
EXTT17=
EXTT18=
EXTT19=
PLAYORDER=
